G04*
G04 #@! TF.GenerationSoftware,Altium Limited,Altium Designer,24.5.2 (23)*
G04*
G04 Layer_Color=128*
%FSLAX44Y44*%
%MOMM*%
G71*
G04*
G04 #@! TF.SameCoordinates,DE00AD7B-9573-4419-8703-1480E7219BD1*
G04*
G04*
G04 #@! TF.FilePolarity,Positive*
G04*
G01*
G75*
%ADD37C,0.1270*%
D37*
X564900Y72700D02*
X575100D01*
X570000Y67600D02*
Y77800D01*
X564900Y47300D02*
X575100D01*
X570000Y42200D02*
Y52400D01*
X135250Y212700D02*
X144750D01*
X140000Y207950D02*
Y217450D01*
X135250Y187300D02*
X144750D01*
X140000Y182550D02*
Y192050D01*
X91650Y60150D02*
X99150D01*
X95400Y56400D02*
Y63900D01*
X40850Y60150D02*
X48350D01*
X44600Y56400D02*
Y63900D01*
X66250Y85550D02*
X73750D01*
X70000Y81800D02*
Y89300D01*
X565250Y212700D02*
X574750D01*
X570000Y207950D02*
Y217450D01*
X565250Y187300D02*
X574750D01*
X570000Y182550D02*
Y192050D01*
X410250Y210400D02*
X419750D01*
X415000Y205650D02*
Y215150D01*
X410250Y185000D02*
X419750D01*
X415000Y180250D02*
Y189750D01*
X515250Y187300D02*
X524750D01*
X520000Y182550D02*
Y192050D01*
X515250Y212700D02*
X524750D01*
X520000Y207950D02*
Y217450D01*
X460250Y187300D02*
X469750D01*
X465000Y182550D02*
Y192050D01*
X460250Y212700D02*
X469750D01*
X465000Y207950D02*
Y217450D01*
X355250Y185000D02*
X364750D01*
X360000Y180250D02*
Y189750D01*
X355250Y210400D02*
X364750D01*
X360000Y205650D02*
Y215150D01*
X300250Y187300D02*
X309750D01*
X305000Y182550D02*
Y192050D01*
X300250Y212700D02*
X309750D01*
X305000Y207950D02*
Y217450D01*
X245250Y187300D02*
X254750D01*
X250000Y182550D02*
Y192050D01*
X245250Y212700D02*
X254750D01*
X250000Y207950D02*
Y217450D01*
X195250Y187300D02*
X204750D01*
X200000Y182550D02*
Y192050D01*
X195250Y212700D02*
X204750D01*
X200000Y207950D02*
Y217450D01*
X75250Y187300D02*
X84750D01*
X80000Y182550D02*
Y192050D01*
X75250Y212700D02*
X84750D01*
X80000Y207950D02*
Y217450D01*
X346444Y60000D02*
X353556D01*
X350000Y56444D02*
Y63556D01*
X386444Y85000D02*
X393556D01*
X390000Y81444D02*
Y88556D01*
X216444Y115000D02*
X223556D01*
X220000Y111444D02*
Y118556D01*
X546444Y60000D02*
X553556D01*
X550000Y56444D02*
Y63556D01*
X266444Y115000D02*
X273556D01*
X270000Y111444D02*
Y118556D01*
X386444Y65000D02*
X393556D01*
X390000Y61444D02*
Y68556D01*
X386444Y45000D02*
X393556D01*
X390000Y41444D02*
Y48556D01*
X131444Y45000D02*
X138556D01*
X135000Y41444D02*
Y48556D01*
X131444Y75000D02*
X138556D01*
X135000Y71444D02*
Y78556D01*
X391444Y10000D02*
X398556D01*
X395000Y6444D02*
Y13556D01*
X436444Y80000D02*
X443556D01*
X440000Y76444D02*
Y83556D01*
X541444Y25000D02*
X548556D01*
X545000Y21444D02*
Y28556D01*
X486444Y25000D02*
X493556D01*
X490000Y21444D02*
Y28556D01*
X411444Y25000D02*
X418556D01*
X415000Y21444D02*
Y28556D01*
X321444Y150000D02*
X328556D01*
X325000Y146444D02*
Y153556D01*
X196444Y60000D02*
X203556D01*
X200000Y56444D02*
Y63556D01*
X441444Y135000D02*
X448556D01*
X445000Y131444D02*
Y138556D01*
X386444Y135000D02*
X393556D01*
X390000Y131444D02*
Y138556D01*
M02*
