G04*
G04 #@! TF.GenerationSoftware,Altium Limited,Altium Designer,24.5.2 (23)*
G04*
G04 Layer_Color=8388736*
%FSLAX44Y44*%
%MOMM*%
G71*
G04*
G04 #@! TF.SameCoordinates,DE00AD7B-9573-4419-8703-1480E7219BD1*
G04*
G04*
G04 #@! TF.FilePolarity,Positive*
G04*
G01*
G75*
%ADD11C,0.2000*%
%ADD33C,0.1500*%
D11*
X420525Y84525D02*
X459475D01*
Y35475D02*
Y84525D01*
X420525Y35475D02*
X459475D01*
X420525D02*
Y84525D01*
X556800Y32100D02*
X583200D01*
Y87900D01*
X556800D02*
X583200D01*
X556800Y32100D02*
Y87900D01*
X21100Y11100D02*
X118900D01*
X21100D02*
Y108900D01*
X118900D01*
Y11100D02*
Y108900D01*
D33*
X157150Y200000D02*
G03*
X157150Y200000I-17150J0D01*
G01*
X587150D02*
G03*
X587150Y200000I-17150J0D01*
G01*
X432150Y197700D02*
G03*
X432150Y197700I-17150J0D01*
G01*
X537150Y200000D02*
G03*
X537150Y200000I-17150J0D01*
G01*
X482150D02*
G03*
X482150Y200000I-17150J0D01*
G01*
X377150Y197700D02*
G03*
X377150Y197700I-17150J0D01*
G01*
X322150Y200000D02*
G03*
X322150Y200000I-17150J0D01*
G01*
X267150D02*
G03*
X267150Y200000I-17150J0D01*
G01*
X217150D02*
G03*
X217150Y200000I-17150J0D01*
G01*
X97150D02*
G03*
X97150Y200000I-17150J0D01*
G01*
M02*
