G04*
G04 #@! TF.GenerationSoftware,Altium Limited,Altium Designer,24.5.2 (23)*
G04*
G04 Layer_Color=65535*
%FSLAX44Y44*%
%MOMM*%
G71*
G04*
G04 #@! TF.SameCoordinates,DE00AD7B-9573-4419-8703-1480E7219BD1*
G04*
G04*
G04 #@! TF.FilePolarity,Positive*
G04*
G01*
G75*
%ADD10C,0.2500*%
%ADD11C,0.2000*%
%ADD12C,0.6000*%
%ADD13C,0.2540*%
D10*
X399268Y79050D02*
G03*
X399268Y79050I-1250J0D01*
G01*
X571250Y25750D02*
G03*
X571250Y25750I-1250J0D01*
G01*
X141250Y225750D02*
G03*
X141250Y225750I-1250J0D01*
G01*
X314200Y92250D02*
G03*
X314200Y92250I-1250J0D01*
G01*
X571250Y225750D02*
G03*
X571250Y225750I-1250J0D01*
G01*
X416250Y223450D02*
G03*
X416250Y223450I-1250J0D01*
G01*
X521250Y225750D02*
G03*
X521250Y225750I-1250J0D01*
G01*
X466250D02*
G03*
X466250Y225750I-1250J0D01*
G01*
X361250Y223450D02*
G03*
X361250Y223450I-1250J0D01*
G01*
X306250Y225750D02*
G03*
X306250Y225750I-1250J0D01*
G01*
X251250D02*
G03*
X251250Y225750I-1250J0D01*
G01*
X201250D02*
G03*
X201250Y225750I-1250J0D01*
G01*
X81250D02*
G03*
X81250Y225750I-1250J0D01*
G01*
D11*
X151200Y187000D02*
G03*
X151200Y213000I-11186J13000D01*
G01*
X128800D02*
G03*
X128800Y187000I11186J-13000D01*
G01*
X581200D02*
G03*
X581200Y213000I-11186J13000D01*
G01*
X558800D02*
G03*
X558800Y187000I11186J-13000D01*
G01*
X426200Y184700D02*
G03*
X426200Y210700I-11186J13000D01*
G01*
X403800D02*
G03*
X403800Y184700I11186J-13000D01*
G01*
X508800Y213000D02*
G03*
X508800Y187000I11186J-13000D01*
G01*
X531200D02*
G03*
X531200Y213000I-11186J13000D01*
G01*
X453800D02*
G03*
X453800Y187000I11186J-13000D01*
G01*
X476200D02*
G03*
X476200Y213000I-11186J13000D01*
G01*
X348800Y210700D02*
G03*
X348800Y184700I11186J-13000D01*
G01*
X371200D02*
G03*
X371200Y210700I-11186J13000D01*
G01*
X293800Y213000D02*
G03*
X293800Y187000I11186J-13000D01*
G01*
X316200D02*
G03*
X316200Y213000I-11186J13000D01*
G01*
X238800D02*
G03*
X238800Y187000I11186J-13000D01*
G01*
X261200D02*
G03*
X261200Y213000I-11186J13000D01*
G01*
X188800D02*
G03*
X188800Y187000I11186J-13000D01*
G01*
X211200D02*
G03*
X211200Y213000I-11186J13000D01*
G01*
X68800D02*
G03*
X68800Y187000I11186J-13000D01*
G01*
X91200D02*
G03*
X91200Y213000I-11186J13000D01*
G01*
X433210Y84525D02*
X446790D01*
Y35475D02*
Y84525D01*
X433210Y35475D02*
X446790D01*
X433210D02*
Y84525D01*
X556800Y32100D02*
X583200D01*
Y87900D01*
X556800D02*
X583200D01*
X556800Y32100D02*
Y87900D01*
X359000Y76250D02*
X361000D01*
X359000Y63750D02*
X361000D01*
X359000Y46250D02*
X361000D01*
X359000Y33750D02*
X361000D01*
X563750Y144000D02*
Y146000D01*
X576250Y144000D02*
Y146000D01*
X513750Y144000D02*
Y146000D01*
X526250Y144000D02*
Y146000D01*
X458750Y144000D02*
Y146000D01*
X471250Y144000D02*
Y146000D01*
X408750Y144000D02*
Y146000D01*
X421250Y144000D02*
Y146000D01*
X353750Y144000D02*
Y146000D01*
X366250Y144000D02*
Y146000D01*
X298750Y144000D02*
Y146000D01*
X311250Y144000D02*
Y146000D01*
X243750Y144000D02*
Y146000D01*
X256250Y144000D02*
Y146000D01*
X193750Y144000D02*
Y146000D01*
X206250Y144000D02*
Y146000D01*
X133750Y144000D02*
Y146000D01*
X146250Y144000D02*
Y146000D01*
X73750Y144000D02*
Y146000D01*
X86250Y144000D02*
Y146000D01*
X210000Y49000D02*
Y81000D01*
X310000Y49000D02*
Y81000D01*
X210000Y49000D02*
X310000D01*
X210000Y81000D02*
X310000D01*
X21100Y11100D02*
X118900D01*
X21100D02*
Y108900D01*
X118900D01*
Y11100D02*
Y108900D01*
D12*
X303000Y71000D02*
G03*
X303000Y71000I-3000J0D01*
G01*
D13*
X436669Y104998D02*
Y96668D01*
X438335Y95002D01*
X441668D01*
X443334Y96668D01*
Y104998D01*
X453331Y95002D02*
X446666D01*
X453331Y101666D01*
Y103332D01*
X451665Y104998D01*
X448332D01*
X446666Y103332D01*
X570000Y14998D02*
X566668D01*
X568334D01*
Y6668D01*
X566668Y5002D01*
X565002D01*
X563335Y6668D01*
X573332Y5002D02*
X576665D01*
X574998D01*
Y14998D01*
X573332Y13332D01*
X525000Y33332D02*
X523334Y34998D01*
X520002D01*
X518335Y33332D01*
Y26668D01*
X520002Y25002D01*
X523334D01*
X525000Y26668D01*
X528332Y25002D02*
X531665D01*
X529998D01*
Y34998D01*
X528332Y33332D01*
X357503Y82001D02*
Y87999D01*
X360502D01*
X361501Y86999D01*
Y85000D01*
X360502Y84000D01*
X357503D01*
X359502D02*
X361501Y82001D01*
X363501D02*
X365500D01*
X364500D01*
Y87999D01*
X363501Y86999D01*
X372498Y82001D02*
X368499D01*
X372498Y86000D01*
Y86999D01*
X371498Y87999D01*
X369498D01*
X368499Y86999D01*
X318502Y32001D02*
Y37999D01*
X321501D01*
X322501Y36999D01*
Y35000D01*
X321501Y34000D01*
X318502D01*
X320502D02*
X322501Y32001D01*
X324500D02*
X326500D01*
X325500D01*
Y37999D01*
X324500Y36999D01*
X329499Y32001D02*
X331498D01*
X330498D01*
Y37999D01*
X329499Y36999D01*
X578335Y165002D02*
Y174998D01*
X583334D01*
X585000Y173332D01*
Y170000D01*
X583334Y168334D01*
X578335D01*
X581668D02*
X585000Y165002D01*
X588332D02*
X591665D01*
X589998D01*
Y174998D01*
X588332Y173332D01*
X536669Y140002D02*
Y149998D01*
X541668D01*
X543334Y148332D01*
Y145000D01*
X541668Y143334D01*
X536669D01*
X540002D02*
X543334Y140002D01*
X553331D02*
X546666D01*
X553331Y146666D01*
Y148332D01*
X551665Y149998D01*
X548332D01*
X546666Y148332D01*
X481669Y140002D02*
Y149998D01*
X486668D01*
X488334Y148332D01*
Y145000D01*
X486668Y143334D01*
X481669D01*
X485002D02*
X488334Y140002D01*
X491666Y148332D02*
X493332Y149998D01*
X496665D01*
X498331Y148332D01*
Y146666D01*
X496665Y145000D01*
X494998D01*
X496665D01*
X498331Y143334D01*
Y141668D01*
X496665Y140002D01*
X493332D01*
X491666Y141668D01*
X431669Y150002D02*
Y159998D01*
X436668D01*
X438334Y158332D01*
Y155000D01*
X436668Y153334D01*
X431669D01*
X435002D02*
X438334Y150002D01*
X446665D02*
Y159998D01*
X441666Y155000D01*
X448331D01*
X376669Y155002D02*
Y164998D01*
X381668D01*
X383334Y163332D01*
Y160000D01*
X381668Y158334D01*
X376669D01*
X380002D02*
X383334Y155002D01*
X393331Y164998D02*
X386666D01*
Y160000D01*
X389998Y161666D01*
X391665D01*
X393331Y160000D01*
Y156668D01*
X391665Y155002D01*
X388332D01*
X386666Y156668D01*
X321669Y165002D02*
Y174998D01*
X326668D01*
X328334Y173332D01*
Y170000D01*
X326668Y168334D01*
X321669D01*
X325002D02*
X328334Y165002D01*
X338331Y174998D02*
X334998Y173332D01*
X331666Y170000D01*
Y166668D01*
X333332Y165002D01*
X336665D01*
X338331Y166668D01*
Y168334D01*
X336665Y170000D01*
X331666D01*
X266669Y165002D02*
Y174998D01*
X271668D01*
X273334Y173332D01*
Y170000D01*
X271668Y168334D01*
X266669D01*
X270002D02*
X273334Y165002D01*
X276666Y174998D02*
X283331D01*
Y173332D01*
X276666Y166668D01*
Y165002D01*
X216669Y160002D02*
Y169998D01*
X221668D01*
X223334Y168332D01*
Y165000D01*
X221668Y163334D01*
X216669D01*
X220002D02*
X223334Y160002D01*
X226666Y168332D02*
X228332Y169998D01*
X231665D01*
X233331Y168332D01*
Y166666D01*
X231665Y165000D01*
X233331Y163334D01*
Y161668D01*
X231665Y160002D01*
X228332D01*
X226666Y161668D01*
Y163334D01*
X228332Y165000D01*
X226666Y166666D01*
Y168332D01*
X228332Y165000D02*
X231665D01*
X161669Y140002D02*
Y149998D01*
X166668D01*
X168334Y148332D01*
Y145000D01*
X166668Y143334D01*
X161669D01*
X165002D02*
X168334Y140002D01*
X171666Y141668D02*
X173332Y140002D01*
X176665D01*
X178331Y141668D01*
Y148332D01*
X176665Y149998D01*
X173332D01*
X171666Y148332D01*
Y146666D01*
X173332Y145000D01*
X178331D01*
X97504Y140002D02*
Y149998D01*
X102502D01*
X104169Y148332D01*
Y145000D01*
X102502Y143334D01*
X97504D01*
X100836D02*
X104169Y140002D01*
X107501D02*
X110833D01*
X109167D01*
Y149998D01*
X107501Y148332D01*
X115831D02*
X117498Y149998D01*
X120830D01*
X122496Y148332D01*
Y141668D01*
X120830Y140002D01*
X117498D01*
X115831Y141668D01*
Y148332D01*
X233335Y69998D02*
Y61668D01*
X235002Y60002D01*
X238334D01*
X240000Y61668D01*
Y69998D01*
X243332Y60002D02*
X246665D01*
X244998D01*
Y69998D01*
X243332Y68332D01*
X57504Y20002D02*
Y29998D01*
X62502D01*
X64169Y28332D01*
Y25000D01*
X62502Y23334D01*
X57504D01*
X60836D02*
X64169Y20002D01*
X67501D02*
X70833D01*
X69167D01*
Y29998D01*
X67501Y28332D01*
X75831D02*
X77498Y29998D01*
X80830D01*
X82496Y28332D01*
Y26666D01*
X80830Y25000D01*
X79164D01*
X80830D01*
X82496Y23334D01*
Y21668D01*
X80830Y20002D01*
X77498D01*
X75831Y21668D01*
X517952Y99185D02*
X516286Y100851D01*
X512954D01*
X511288Y99185D01*
Y92520D01*
X512954Y90854D01*
X516286D01*
X517952Y92520D01*
X527949Y90854D02*
X521285D01*
X527949Y97519D01*
Y99185D01*
X526283Y100851D01*
X522951D01*
X521285Y99185D01*
M02*
