M48
;Layer_Color=9474304
;FILE_FORMAT=4:4
METRIC,LZ
;TYPE=PLATED
T01F00S00C0.7112
T02F00S00C0.7500
T03F00S00C0.9500
T04F00S00C1.0200
%
T01
X00135Y00045
Y00075
X002Y0006
X0022Y00115
X0027
X00325Y0015
X0039Y00135
Y00085
Y00065
Y00045
X00395Y0001
X00415Y00025
X0049
X0044Y0008
X00445Y00135
X0035Y0006
X0055
X00545Y00025
T02
X000446Y0006015
X000954
X0007Y0008555
T03
X0008Y001873
Y002127
X0014
Y001873
X002
Y002127
X0025
Y001873
X00305
Y002127
X0036Y002104
Y00185
X00415
Y002104
X00465Y002127
Y001873
X0052
Y002127
X0057
Y001873
T04
X0057Y000473
Y000727
M30
