G04*
G04 #@! TF.GenerationSoftware,Altium Limited,Altium Designer,24.5.2 (23)*
G04*
G04 Layer_Color=8421504*
%FSLAX44Y44*%
%MOMM*%
G71*
G04*
G04 #@! TF.SameCoordinates,DE00AD7B-9573-4419-8703-1480E7219BD1*
G04*
G04*
G04 #@! TF.FilePolarity,Positive*
G04*
G01*
G75*
%ADD14R,2.4692X0.6221*%
G04:AMPARAMS|DCode=15|XSize=2.4692mm|YSize=0.6221mm|CornerRadius=0.3111mm|HoleSize=0mm|Usage=FLASHONLY|Rotation=0.000|XOffset=0mm|YOffset=0mm|HoleType=Round|Shape=RoundedRectangle|*
%AMROUNDEDRECTD15*
21,1,2.4692,0.0000,0,0,0.0*
21,1,1.8470,0.6221,0,0,0.0*
1,1,0.6221,0.9235,0.0000*
1,1,0.6221,-0.9235,0.0000*
1,1,0.6221,-0.9235,0.0000*
1,1,0.6221,0.9235,0.0000*
%
%ADD15ROUNDEDRECTD15*%
%ADD16R,1.0000X1.3000*%
%ADD17R,1.2000X1.4500*%
%ADD18R,1.4500X1.2000*%
G04:AMPARAMS|DCode=19|XSize=0.6mm|YSize=1.45mm|CornerRadius=0.051mm|HoleSize=0mm|Usage=FLASHONLY|Rotation=0.000|XOffset=0mm|YOffset=0mm|HoleType=Round|Shape=RoundedRectangle|*
%AMROUNDEDRECTD19*
21,1,0.6000,1.3480,0,0,0.0*
21,1,0.4980,1.4500,0,0,0.0*
1,1,0.1020,0.2490,-0.6740*
1,1,0.1020,-0.2490,-0.6740*
1,1,0.1020,-0.2490,0.6740*
1,1,0.1020,0.2490,0.6740*
%
%ADD19ROUNDEDRECTD19*%
D14*
X415864Y79050D02*
D03*
D15*
Y66350D02*
D03*
Y53650D02*
D03*
Y40950D02*
D03*
X464136D02*
D03*
Y53650D02*
D03*
Y66350D02*
D03*
Y79050D02*
D03*
D16*
X517500Y45000D02*
D03*
X532500D02*
D03*
X515000Y75000D02*
D03*
X530000D02*
D03*
D17*
X350000Y70000D02*
D03*
X370000D02*
D03*
X350000Y40000D02*
D03*
X370000D02*
D03*
D18*
X570000Y135000D02*
D03*
Y155000D02*
D03*
X520000Y135000D02*
D03*
Y155000D02*
D03*
X465000Y135000D02*
D03*
Y155000D02*
D03*
X415000Y135000D02*
D03*
Y155000D02*
D03*
X360000Y135000D02*
D03*
Y155000D02*
D03*
X305000Y135000D02*
D03*
Y155000D02*
D03*
X250000Y135000D02*
D03*
Y155000D02*
D03*
X200000Y135000D02*
D03*
Y155000D02*
D03*
X140000Y135000D02*
D03*
Y155000D02*
D03*
X80000Y135000D02*
D03*
Y155000D02*
D03*
D19*
X215550Y37750D02*
D03*
X228250D02*
D03*
X240950D02*
D03*
X253650D02*
D03*
X266350D02*
D03*
X279050D02*
D03*
X291750D02*
D03*
X304450D02*
D03*
X215550Y92250D02*
D03*
X228250D02*
D03*
X240950D02*
D03*
X253650D02*
D03*
X266350D02*
D03*
X279050D02*
D03*
X291750D02*
D03*
X304450D02*
D03*
M02*
