G04*
G04 #@! TF.GenerationSoftware,Altium Limited,Altium Designer,24.5.2 (23)*
G04*
G04 Layer_Color=16711935*
%FSLAX44Y44*%
%MOMM*%
G71*
G04*
G04 #@! TF.SameCoordinates,DE00AD7B-9573-4419-8703-1480E7219BD1*
G04*
G04*
G04 #@! TF.FilePolarity,Negative*
G04*
G01*
G75*
%ADD24C,1.5700*%
%ADD25R,1.5700X1.5700*%
%ADD26R,1.4500X1.4500*%
%ADD27C,1.4500*%
%ADD28R,1.2500X1.2500*%
%ADD29C,1.2500*%
%ADD30C,1.4732*%
D24*
X570000Y72700D02*
D03*
D25*
Y47300D02*
D03*
D26*
X140000Y212700D02*
D03*
X570000D02*
D03*
X415000Y210400D02*
D03*
X520000Y212700D02*
D03*
X465000D02*
D03*
X360000Y210400D02*
D03*
X305000Y212700D02*
D03*
X250000D02*
D03*
X200000D02*
D03*
X80000D02*
D03*
D27*
X140000Y187300D02*
D03*
X570000D02*
D03*
X415000Y185000D02*
D03*
X520000Y187300D02*
D03*
X465000D02*
D03*
X360000Y185000D02*
D03*
X305000Y187300D02*
D03*
X250000D02*
D03*
X200000D02*
D03*
X80000D02*
D03*
D28*
X95400Y60150D02*
D03*
D29*
X44600D02*
D03*
X70000Y85550D02*
D03*
D30*
X350000Y60000D02*
D03*
X390000Y85000D02*
D03*
X220000Y115000D02*
D03*
X550000Y60000D02*
D03*
X270000Y115000D02*
D03*
X390000Y65000D02*
D03*
Y45000D02*
D03*
X135000D02*
D03*
Y75000D02*
D03*
X395000Y10000D02*
D03*
X440000Y80000D02*
D03*
X545000Y25000D02*
D03*
X490000D02*
D03*
X415000D02*
D03*
X325000Y150000D02*
D03*
X200000Y60000D02*
D03*
X445000Y135000D02*
D03*
X390000D02*
D03*
M02*
