G04*
G04 #@! TF.GenerationSoftware,Altium Limited,Altium Designer,24.5.2 (23)*
G04*
G04 Layer_Color=16711935*
%FSLAX44Y44*%
%MOMM*%
G71*
G04*
G04 #@! TF.SameCoordinates,DE00AD7B-9573-4419-8703-1480E7219BD1*
G04*
G04*
G04 #@! TF.FilePolarity,Positive*
G04*
G01*
G75*
%ADD34C,0.1000*%
D34*
X306000Y76000D02*
G03*
X306000Y76000I-5000J0D01*
G01*
X514500Y38250D02*
Y51750D01*
X535500Y38250D02*
Y51750D01*
X514500D02*
X535500D01*
X514500Y38250D02*
X535500D01*
X349500Y63250D02*
Y76750D01*
X370500Y63250D02*
Y76750D01*
X349500D02*
X370500D01*
X349500Y63250D02*
X370500D01*
X349500Y33250D02*
Y46750D01*
X370500Y33250D02*
Y46750D01*
X349500D02*
X370500D01*
X349500Y33250D02*
X370500D01*
X563250Y134500D02*
X576750D01*
X563250Y155500D02*
X576750D01*
X563250Y134500D02*
Y155500D01*
X576750Y134500D02*
Y155500D01*
X513250Y134500D02*
X526750D01*
X513250Y155500D02*
X526750D01*
X513250Y134500D02*
Y155500D01*
X526750Y134500D02*
Y155500D01*
X458250Y134500D02*
X471750D01*
X458250Y155500D02*
X471750D01*
X458250Y134500D02*
Y155500D01*
X471750Y134500D02*
Y155500D01*
X408250Y134500D02*
X421750D01*
X408250Y155500D02*
X421750D01*
X408250Y134500D02*
Y155500D01*
X421750Y134500D02*
Y155500D01*
X353250Y134500D02*
X366750D01*
X353250Y155500D02*
X366750D01*
X353250Y134500D02*
Y155500D01*
X366750Y134500D02*
Y155500D01*
X298250Y134500D02*
X311750D01*
X298250Y155500D02*
X311750D01*
X298250Y134500D02*
Y155500D01*
X311750Y134500D02*
Y155500D01*
X243250Y134500D02*
X256750D01*
X243250Y155500D02*
X256750D01*
X243250Y134500D02*
Y155500D01*
X256750Y134500D02*
Y155500D01*
X193250Y134500D02*
X206750D01*
X193250Y155500D02*
X206750D01*
X193250Y134500D02*
Y155500D01*
X206750Y134500D02*
Y155500D01*
X133250Y134500D02*
X146750D01*
X133250Y155500D02*
X146750D01*
X133250Y134500D02*
Y155500D01*
X146750Y134500D02*
Y155500D01*
X73250Y134500D02*
X86750D01*
X73250Y155500D02*
X86750D01*
X73250Y134500D02*
Y155500D01*
X86750Y134500D02*
Y155500D01*
X210000Y45000D02*
Y85000D01*
X310000Y45000D02*
Y85000D01*
X210000Y45000D02*
X310000D01*
X210000Y85000D02*
X310000D01*
X512000Y68250D02*
Y81750D01*
X533000Y68250D02*
Y81750D01*
X512000D02*
X533000D01*
X512000Y68250D02*
X533000D01*
M02*
