G04*
G04 #@! TF.GenerationSoftware,Altium Limited,Altium Designer,24.5.2 (23)*
G04*
G04 Layer_Color=32768*
%FSLAX44Y44*%
%MOMM*%
G71*
G04*
G04 #@! TF.SameCoordinates,DE00AD7B-9573-4419-8703-1480E7219BD1*
G04*
G04*
G04 #@! TF.FilePolarity,Positive*
G04*
G01*
G75*
%ADD11C,0.2000*%
D11*
X140000Y177773D02*
G03*
X140000Y222227I0J22227D01*
G01*
D02*
G03*
X140000Y177773I0J-22227D01*
G01*
X570000D02*
G03*
X570000Y222227I0J22227D01*
G01*
D02*
G03*
X570000Y177773I0J-22227D01*
G01*
X415000Y175473D02*
G03*
X415000Y219927I0J22227D01*
G01*
D02*
G03*
X415000Y175473I0J-22227D01*
G01*
X520000Y222227D02*
G03*
X520000Y177773I0J-22227D01*
G01*
D02*
G03*
X520000Y222227I0J22227D01*
G01*
X465000D02*
G03*
X465000Y177773I0J-22227D01*
G01*
D02*
G03*
X465000Y222227I0J22227D01*
G01*
X360000Y219927D02*
G03*
X360000Y175473I0J-22227D01*
G01*
D02*
G03*
X360000Y219927I0J22227D01*
G01*
X305000Y222227D02*
G03*
X305000Y177773I0J-22227D01*
G01*
D02*
G03*
X305000Y222227I0J22227D01*
G01*
X250000D02*
G03*
X250000Y177773I0J-22227D01*
G01*
D02*
G03*
X250000Y222227I0J22227D01*
G01*
X200000D02*
G03*
X200000Y177773I0J-22227D01*
G01*
D02*
G03*
X200000Y222227I0J22227D01*
G01*
X80000D02*
G03*
X80000Y177773I0J-22227D01*
G01*
D02*
G03*
X80000Y222227I0J22227D01*
G01*
X398518Y89525D02*
X481482D01*
Y30475D02*
Y89525D01*
X398518Y30475D02*
X481482D01*
X398518D02*
Y89525D01*
X555800Y31100D02*
X584200D01*
Y88900D01*
X555800D02*
X584200D01*
X555800Y31100D02*
Y88900D01*
X20100Y10100D02*
X119900D01*
X20100D02*
Y109900D01*
X119900D01*
Y10100D02*
Y109900D01*
M02*
